<svg width="24" height="24" viewBox="0 0 24 24" fill="none" xmlns="http://www.w3.org/2000/svg">
<g clip-path="url(#clip0_2434_2801)">
<rect width="24" height="24" fill="white"/>
<path opacity="0.4" d="M3.60143 19.9785C3.2117 20.1188 3.0095 20.5485 3.1498 20.9382C3.29011 21.3279 3.71978 21.5301 4.10951 21.3898L3.60143 19.9785ZM18.3292 15.4736L18.5832 16.1793L20.1795 15.6046L18.6801 14.8108L18.3292 15.4736ZM8.48705 10.2631L8.08439 9.63035L6.99654 10.3226L8.13613 10.9259L8.48705 10.2631ZM21.6265 2.79058C21.976 2.5682 22.079 2.10464 21.8566 1.75518C21.6343 1.40572 21.1707 1.30271 20.8212 1.52509L21.6265 2.79058ZM4.10951 21.3898L18.5832 16.1793L18.0751 14.768L3.60143 19.9785L4.10951 21.3898ZM18.6801 14.8108L8.83796 9.60026L8.13613 10.9259L17.9782 16.1365L18.6801 14.8108ZM8.8897 10.8958L21.6265 2.79058L20.8212 1.52509L8.08439 9.63035L8.8897 10.8958Z" fill="#333333"/>
<circle cx="19.6709" cy="3.5" r="2.75" fill="#333333" stroke="white" stroke-width="0.5"/>
<circle cx="8.71451" cy="10.6315" r="2.75" transform="rotate(22.3595 8.71451 10.6315)" fill="#333333" stroke="white" stroke-width="0.5"/>
<circle cx="17.9782" cy="15.2631" r="2.75" transform="rotate(22.3595 17.9782 15.2631)" fill="#333333" stroke="white" stroke-width="0.5"/>
<circle cx="5.19727" cy="20.8684" r="2.75" fill="#333333" stroke="white" stroke-width="0.5"/>
</g>
<defs>
<clipPath id="clip0_2434_2801">
<rect width="24" height="24" fill="white"/>
</clipPath>
</defs>
</svg>
